<?xml version="1.0" encoding="utf-8"?><svg viewBox="0 0 81 41" xmlns="http://www.w3.org/2000/svg" xmlns:xlink="http://www.w3.org/1999/xlink"><style>:root>svg{display:none}:root>svg:target{display:block}</style><svg viewBox="0 0 81 41" id="icon-arc-green" xmlns="http://www.w3.org/2000/svg"><path d="M80 40.5a39.5 39.5 0 0 0-79 0"/></svg><svg viewBox="0 0 16 18" id="icon-arrow" xmlns="http://www.w3.org/2000/svg"><path d="M8 1v16M15 10l-7 7-7-7"/></svg><svg viewBox="0 0 24 24" id="icon-data" xmlns="http://www.w3.org/2000/svg"><path d="M19 4h-1V3c0-.55-.45-1-1-1s-1 .45-1 1v1H8V3c0-.55-.45-1-1-1s-1 .45-1 1v1H5c-1.11 0-1.99.9-1.99 2L3 20a2 2 0 0 0 2 2h14c1.1 0 2-.9 2-2V6c0-1.1-.9-2-2-2Zm0 15c0 .55-.45 1-1 1H6c-.55 0-1-.45-1-1V9h14v10ZM7 11h2v2H7v-2Zm4 0h2v2h-2v-2Zm4 0h2v2h-2v-2Z"/></svg><svg viewBox="0 0 24 24" id="icon-downward" xmlns="http://www.w3.org/2000/svg"><path d="M12 16a1 1 0 0 1-.64-.23l-6-5a1.001 1.001 0 1 1 1.28-1.54L12 13.71l5.36-4.32a1 1 0 0 1 1.41.15 1 1 0 0 1-.14 1.46l-6 4.83A1 1 0 0 1 12 16Z"/></svg><svg viewBox="0 0 81 41" id="icon-ellipse" xmlns="http://www.w3.org/2000/svg"><path d="M80 40.5a39.5 39.5 0 0 0-79 0"/></svg><svg viewBox="0 0 25 24" id="icon-email" xmlns="http://www.w3.org/2000/svg"><path d="M12.951 2.03a9.858 9.858 0 0 0-4.182.601A9.914 9.914 0 0 0 5.215 4.93a10 10 0 0 0-2.282 3.58c-.497 1.343-.701 2.78-.598 4.21C2.693 18.01 7.281 22 12.544 22h3.664a1 1 0 0 0 0-2h-3.644c-3.704 0-7.1-2.42-8.024-6.03-1.48-5.8 3.883-11.21 9.642-9.71 3.595.92 5.999 4.34 5.999 8.07v1.1c0 .79-.706 1.57-1.49 1.57s-1.49-.78-1.49-1.57v-1.25c0-2.51-1.767-4.77-4.23-5.12a4.94 4.94 0 0 0-2.334.213A4.97 4.97 0 0 0 8.66 8.537a5.041 5.041 0 0 0-1.31 4.393c.175.945.617 1.82 1.272 2.518a4.954 4.954 0 0 0 2.423 1.422c1.828.43 3.566-.16 4.708-1.33.883 1.22 2.651 1.86 4.27 1.21 1.33-.53 2.145-1.9 2.145-3.34v-1.09c0-5.31-3.963-9.93-9.216-10.29ZM12.236 15a2.986 2.986 0 0 1-2.979-3c0-1.66 1.33-3 2.98-3 1.648 0 2.978 1.34 2.978 3s-1.33 3-2.979 3Z"/></svg><svg viewBox="0 0 10 20" id="icon-facebook" xmlns="http://www.w3.org/2000/svg"><path d="M8.15 3.295h1.812V.14A23.394 23.394 0 0 0 7.322 0C4.71 0 2.921 1.643 2.921 4.663v2.779H.038v3.527h2.883v8.876h3.534V10.97H9.22l.439-3.527H6.454v-2.43c0-1.02.275-1.718 1.696-1.718Z"/></svg><svg viewBox="0 0 22 22" id="icon-instagram" xmlns="http://www.w3.org/2000/svg"><path fill-rule="evenodd" clip-rule="evenodd" d="M6.875 0h8.25A6.876 6.876 0 0 1 22 6.875v8.25A6.876 6.876 0 0 1 15.125 22h-8.25A6.876 6.876 0 0 1 0 15.125v-8.25A6.876 6.876 0 0 1 6.875 0Zm8.25 19.938a4.818 4.818 0 0 0 4.813-4.813v-8.25a4.818 4.818 0 0 0-4.813-4.813h-8.25a4.818 4.818 0 0 0-4.813 4.813v8.25a4.818 4.818 0 0 0 4.813 4.813h8.25Z"/><path fill-rule="evenodd" clip-rule="evenodd" d="M5.5 11a5.5 5.5 0 1 1 11 0 5.5 5.5 0 0 1-11 0Zm2.063 0A3.442 3.442 0 0 0 11 14.438 3.442 3.442 0 0 0 14.438 11 3.441 3.441 0 0 0 11 7.562 3.441 3.441 0 0 0 7.562 11Z"/><circle cx="16.912" cy="5.088" r=".733"/></svg><svg viewBox="0 0 20 16" id="icon-left" xmlns="http://www.w3.org/2000/svg"><path d="M1 7a1 1 0 0 0 0 2V7Zm18.707 1.707a1 1 0 0 0 0-1.414L13.343.929a1 1 0 1 0-1.414 1.414L17.586 8l-5.657 5.657a1 1 0 0 0 1.414 1.414l6.364-6.364ZM1 9h18V7H1v2Z"/></svg><svg viewBox="0 0 24 24" id="icon-person" xmlns="http://www.w3.org/2000/svg"><path d="M12 22a9.9 9.9 0 0 1-4.364-1 10.054 10.054 0 0 1-1.425-.845l-.137-.1a10.09 10.09 0 0 1-2.964-3.471A9.89 9.89 0 0 1 2 12C2 6.477 6.477 2 12 2s10 4.477 10 10a9.89 9.89 0 0 1-1.109 4.582 10.092 10.092 0 0 1-2.96 3.47c-.467.342-.963.643-1.482.9l-.08.04A9.9 9.9 0 0 1 12 22Zm0-5a3.991 3.991 0 0 0-3.557 2.167 8.014 8.014 0 0 0 7.114 0v-.005A3.987 3.987 0 0 0 12 17Zm0-2a6.015 6.015 0 0 1 5.23 3.056l.014-.013.014-.012-.017.015-.01.008a8 8 0 1 0-10.46 0A6.016 6.016 0 0 1 12.001 15Zm0-1a4 4 0 1 1 0-8 4 4 0 0 1 0 8Zm0-6a2 2 0 1 0 0 4 2 2 0 0 0 0-4Z"/><path d="M12 8a2 2 0 1 0 0 4 2 2 0 0 0 0-4ZM12 17a3.991 3.991 0 0 0-3.557 2.167 8.014 8.014 0 0 0 7.114 0v-.005A3.987 3.987 0 0 0 12 17Z"/></svg><svg viewBox="0 0 24 24" id="icon-phone" xmlns="http://www.w3.org/2000/svg"><path d="M10.5 18a.75.75 0 1 0 0 1.5h3a.75.75 0 1 0 0-1.5h-3ZM8.625 1.5A2.625 2.625 0 0 0 6 4.125v15.75A2.626 2.626 0 0 0 8.625 22.5h6.75A2.625 2.625 0 0 0 18 19.875V4.125A2.625 2.625 0 0 0 15.375 1.5h-6.75ZM7.5 4.125A1.125 1.125 0 0 1 8.625 3h6.75A1.125 1.125 0 0 1 16.5 4.125v15.75A1.125 1.125 0 0 1 15.375 21h-6.75A1.125 1.125 0 0 1 7.5 19.875V4.125Z"/></svg><svg viewBox="0 0 22 18" id="icon-twitter" xmlns="http://www.w3.org/2000/svg"><path d="M22 2.116a9.404 9.404 0 0 1-2.599.712A4.485 4.485 0 0 0 21.385.336a9.014 9.014 0 0 1-2.86 1.091 4.509 4.509 0 0 0-7.802 3.084c0 .358.03.702.105 1.029-3.75-.183-7.067-1.98-9.296-4.718a4.54 4.54 0 0 0-.618 2.28c0 1.562.805 2.947 2.004 3.748A4.454 4.454 0 0 1 .88 6.295v.05a4.531 4.531 0 0 0 3.614 4.43 4.5 4.5 0 0 1-1.183.15c-.289 0-.58-.017-.854-.078.585 1.787 2.243 3.1 4.215 3.142a9.063 9.063 0 0 1-5.593 1.924c-.37 0-.724-.017-1.079-.062a12.697 12.697 0 0 0 6.919 2.024c8.3 0 12.837-6.875 12.837-12.834 0-.2-.007-.392-.017-.583A8.999 8.999 0 0 0 22 2.116Z"/></svg></svg>