<svg width="25" height="24" viewBox="0 0 25 24" fill="none" xmlns="http://www.w3.org/2000/svg">
<path d="M12.9512 2.03003C11.5305 1.92589 10.1043 2.131 8.76946 2.63139C7.43459 3.13178 6.22236 3.91574 5.21518 4.92996C4.208 5.94418 3.42949 7.16489 2.93257 8.50909C2.43565 9.8533 2.23198 11.2895 2.33539 12.72C2.69289 18.01 7.28081 22 12.544 22H16.2084C16.7546 22 17.2014 21.55 17.2014 21C17.2014 20.45 16.7546 20 16.2084 20H12.5639C8.85976 20 5.46351 17.58 4.53997 13.97C3.06032 8.17003 8.42282 2.76003 14.1825 4.26003C17.7774 5.18003 20.1806 8.60003 20.1806 12.33V13.43C20.1806 14.22 19.4755 15 18.691 15C17.9065 15 17.2014 14.22 17.2014 13.43V12.18C17.2014 9.67003 15.4338 7.41003 12.971 7.06003C12.1875 6.9427 11.3874 7.01556 10.6374 7.27255C9.8875 7.52953 9.20937 7.9632 8.6595 8.53745C8.10964 9.1117 7.70396 9.80991 7.47624 10.574C7.24852 11.338 7.20535 12.1458 7.35032 12.93C7.52449 13.875 7.96564 14.7493 8.62088 15.4482C9.27611 16.147 10.1176 16.6407 11.0445 16.87C12.8717 17.3 14.6096 16.71 15.7516 15.54C16.6354 16.76 18.403 17.4 20.0217 16.75C21.3524 16.22 22.1667 14.85 22.1667 13.41V12.32C22.1667 7.01003 18.2044 2.39003 12.9512 2.03003ZM12.2362 15C10.5877 15 9.25699 13.66 9.25699 12C9.25699 10.34 10.5877 9.00003 12.2362 9.00003C13.8846 9.00003 15.2153 10.34 15.2153 12C15.2153 13.66 13.8846 15 12.2362 15Z" fill="white"/>
</svg>
